# xmcd CD database file
#
# Track frame offsets:
#	150
#	6734
#	17969
#	37304
#	50468
#	61969
#	70736
#	91604
#	106257
#	118481
#	134281
#	153907
#	162913
#
# Disc length: 2343 seconds
#
# Revision: 0
# Processed by: cddbd v1.5.1PL0 Copyright (c) Steve Scherf et al.
# Submitted via: CDex 1.50beta10
#
DISCID=b209250d
DTITLE=Jet Set Sweden - From Sweden to you
DYEAR=2004
DGENRE=Jazz
TTITLE0=Star Trek
TTITLE1=Mini skirt
TTITLE2=I'm a believer
TTITLE3=A man and a woman
TTITLE4=Music to watch girls by
TTITLE5=Cumana
TTITLE6=Kriminalbyrån svit part I
TTITLE7=Kriminalbyrån svit part II
TTITLE8=Kriminalbyrån svit part III
TTITLE9=Kriminalbyrån svit part IV
TTITLE10=The man from THRUSH
TTITLE11=Danube incident
TTITLE12=Police woman
EXTD=YEAR: 2004
EXTT0=
EXTT1=
EXTT2=
EXTT3=
EXTT4=
EXTT5=
EXTT6=
EXTT7=
EXTT8=
EXTT9=
EXTT10=
EXTT11=
EXTT12=
PLAYORDER=
